PathFileType	4	(X/Y/Z)
DataRate	CameraRate	NumFrames	NumMarkers	Units	OrigDataRate	OrigDataStartFrame	OrigNumFrames	
  120.0	  120.0	    6	     56	     mm	  120.0	      1	    551
Frame#	Time	LASI			RASI			LPSI			RPSI			RTH1			RTH2			RTH3			RLFC			RMFC			LTH1			LTH2			LTH3			LLFC			LMFC			RTB1			RTB2			RTB3			RLMAL			RMMAL			LTB1			LTB2			LTB3			LMMAL			LLMAL			RCAL			RTOE			RMT5			LCAL			LTOE			LMT5			LACR			RACR			CLAV			C7			LASH			LPSH			RASH			RPSH			RUA1			RUA2			RUA3			RLEL			RMEL			LUA1			LUA2			LUA3			LLEL			LMEL			RFAsuperior			RFAradius			RFAulna			LFAsuperior			LFAradius			LFAulna			RHJC			LHJC			
		X1	Y1	Z1	X2	Y2	Z2	X3	Y3	Z3	X4	Y4	Z4	X5	Y5	Z5	X6	Y6	Z6	X7	Y7	Z7	X8	Y8	Z8	X9	Y9	Z9	X10	Y10	Z10	X11	Y11	Z11	X12	Y12	Z12	X13	Y13	Z13	X14	Y14	Z14	X15	Y15	Z15	X16	Y16	Z16	X17	Y17	Z17	X18	Y18	Z18	X19	Y19	Z19	X20	Y20	Z20	X21	Y21	Z21	X22	Y22	Z22	X23	Y23	Z23	X24	Y24	Z24	X25	Y25	Z25	X26	Y26	Z26	X27	Y27	Z27	X28	Y28	Z28	X29	Y29	Z29	X30	Y30	Z30	X31	Y31	Z31	X32	Y32	Z32	X33	Y33	Z33	X34	Y34	Z34	X35	Y35	Z35	X36	Y36	Z36	X37	Y37	Z37	X38	Y38	Z38	X39	Y39	Z39	X40	Y40	Z40	X41	Y41	Z41	X42	Y42	Z42	X43	Y43	Z43	X44	Y44	Z44	X45	Y45	Z45	X46	Y46	Z46	X47	Y47	Z47	X48	Y48	Z48	X49	Y49	Z49	X50	Y50	Z50	X51	Y51	Z51	X52	Y52	Z52	X53	Y53	Z53	X54	Y54	Z54	X55	Y55	Z55	X56	Y56	Z56	

1	0.00833	571.98139	1026.17433	-699.00436	701.12883	1024.62795	-484.28262	468.02903	1046.86788	-539.47834	514.00487	1047.01482	-465.87703	679.65427	849.38706	-410.99465	701.30696	723.88523	-446.95880	623.79620	613.07968	-374.94952	634.85458	531.04260	-376.27709	548.98709	500.81065	-454.54008	496.79069	882.95505	-716.11249	531.56445	765.96198	-731.99439	449.30658	638.24797	-683.96374	437.44066	531.59559	-684.12643	508.59243	520.25913	-584.76805	632.97780	400.32897	-430.60022	636.15915	343.77376	-357.92562	609.68266	223.53272	-409.65718	590.99348	132.93273	-333.73337	566.80178	124.49064	-416.61585	495.23846	394.54088	-659.62254	422.01541	299.52898	-690.20448	468.61157	207.74048	-641.50391	462.20952	121.68722	-607.11451	391.73806	125.83914	-654.98427	513.63041	101.27920	-330.38753	688.56278	74.86832	-460.13013	716.66336	62.55490	-366.39489	361.88087	98.23905	-586.87169	543.35829	79.99671	-707.57863	470.51893	60.62597	-764.64063	443.17054	1470.10697	-679.34152	633.63823	1467.68736	-357.57268	641.45135	1454.59450	-551.92081	515.73242	1530.50476	-505.52953	522.37353	1443.10896	-685.07778	410.26963	1441.11367	-620.71374	684.98369	1444.09422	-407.93416	579.74114	1433.60851	-347.79649	684.13559	1372.29665	-291.50827	732.57417	1321.31376	-303.95975	686.60174	1275.36017	-224.01298	769.19908	1234.53212	-199.08785	719.29406	1171.50742	-238.46172	397.07008	1400.53111	-726.42969	371.89600	1311.98340	-711.83391	383.08873	1320.34624	-788.60903	356.60336	1233.30910	-858.19665	379.96065	1165.64766	-806.98256	836.33663	1241.81662	-247.95364	942.15194	1209.78026	-376.12655	968.75793	1182.03243	-322.20382	413.94526	1250.52982	-894.34188	585.44682	1230.68667	-945.95197	554.17236	1207.16708	-995.28172	631.66392	953.24134	-484.71894	541.24705	976.59184	-638.02140	
2	0.01667	571.84490	1026.20075	-698.93668	701.03501	1024.63991	-484.26009	467.99044	1046.88185	-539.49771	513.97865	1047.02059	-465.89173	679.57984	849.36832	-411.03774	701.21326	723.89129	-446.93627	623.76473	613.07341	-374.94962	634.81359	530.95552	-376.31216	548.87752	500.86246	-454.53416	496.65032	882.99535	-716.04639	531.48158	766.04384	-732.05289	449.13105	638.27658	-683.92383	437.30549	531.68760	-684.17219	508.66203	520.32499	-584.94788	632.85755	400.35775	-430.58600	636.17720	343.75954	-357.97584	609.49589	223.49633	-409.49770	590.97597	132.99035	-333.67588	566.66322	124.52467	-416.58497	495.04311	394.45592	-659.34175	421.88505	299.57585	-690.13827	468.48483	207.72971	-641.40964	461.74033	121.78790	-606.91632	391.58675	125.87341	-654.90444	513.50153	101.29623	-330.40822	688.44314	74.86656	-460.11275	716.57394	62.54916	-366.41454	361.86194	98.27016	-586.87339	543.29840	80.00695	-707.52585	470.38803	60.66957	-764.58423	443.05558	1470.13390	-679.30707	633.62735	1467.70145	-357.59240	641.36747	1454.62672	-551.90092	515.61005	1530.54239	-505.53193	522.17828	1443.15308	-684.85156	410.12552	1441.14702	-620.69959	684.88646	1444.13914	-407.92299	579.70196	1433.62387	-347.80639	684.05742	1372.32660	-291.66211	732.49338	1321.33708	-303.95770	686.56052	1275.38581	-224.03635	769.15064	1234.55989	-199.12428	719.19640	1171.56250	-238.47567	396.94363	1400.55559	-726.38207	371.60906	1312.04744	-711.75114	382.91453	1320.37083	-788.52586	356.46010	1233.33862	-858.12086	379.84806	1165.67658	-806.89930	836.23944	1241.87624	-247.97049	942.05526	1209.81452	-376.10686	968.71842	1182.06364	-322.24896	413.77279	1250.54490	-894.26291	585.29525	1230.72071	-945.92898	553.99536	1207.18268	-995.12967	631.56947	953.25553	-484.69226	541.16236	976.60965	-638.00033	
3	0.02500	571.67618	1026.23467	-698.84728	700.93090	1024.65741	-484.24590	467.95568	1046.89760	-539.50682	513.94695	1047.03075	-465.90661	679.48776	849.34485	-411.15608	701.11808	723.91468	-446.93741	623.73207	613.06805	-374.97151	634.73832	530.85463	-376.46288	548.71706	500.89676	-454.49673	496.47280	883.02707	-715.95122	531.32038	766.08699	-732.01451	448.92205	638.29949	-683.84085	437.14596	531.79917	-684.28602	508.69503	520.35922	-585.03735	632.71547	400.38603	-430.55949	636.16102	343.72675	-358.05502	609.28975	223.47247	-409.34296	590.93440	133.05244	-333.63826	566.49062	124.56195	-416.53906	494.77528	394.34757	-658.96765	421.71526	299.61084	-690.05322	468.34591	207.74703	-641.33983	461.22799	121.90915	-606.69868	391.40941	125.88966	-654.81982	513.37368	101.31858	-330.44009	688.30888	74.89267	-460.11859	716.48700	62.54316	-366.46810	361.84279	98.29408	-586.89007	543.24823	80.01362	-707.54172	470.23276	60.70552	-764.51330	442.92972	1470.17296	-679.27493	633.60791	1467.72362	-357.62344	641.27364	1454.67511	-551.91636	515.49573	1530.58772	-505.54998	521.93292	1443.20249	-684.58237	409.96094	1441.19527	-620.69011	684.78144	1444.19757	-407.94601	579.66372	1433.65021	-347.83041	683.98499	1372.36496	-291.80975	732.40118	1321.37348	-304.00667	686.52162	1275.41957	-224.06558	769.10976	1234.59532	-199.16638	719.08654	1171.61134	-238.48180	396.79279	1400.59217	-726.32739	371.23282	1312.10363	-711.63875	382.70888	1320.39339	-788.42716	356.27110	1233.36449	-858.01684	379.69885	1165.70357	-806.79203	836.13515	1241.94729	-248.00852	941.94010	1209.87652	-376.10461	968.66451	1182.09346	-322.38014	413.56856	1250.56253	-894.15253	585.12272	1230.77155	-945.92885	553.76964	1207.20554	-994.93087	631.46532	953.27525	-484.66191	541.05943	976.63261	-637.97067	
4	0.03333	571.47570	1026.27583	-698.73750	700.82089	1024.67934	-484.24622	467.93917	1046.90364	-539.48640	513.91978	1047.03695	-465.90755	679.41795	849.32966	-411.26738	701.02916	723.95117	-446.94347	623.71470	613.05958	-374.99678	634.67352	530.78544	-376.63873	548.49676	500.91291	-454.41827	496.25699	883.04922	-715.82541	531.07138	766.08676	-731.86371	448.67906	638.31765	-683.70472	436.95414	531.91999	-684.45863	508.68781	520.35900	-585.01925	632.55804	400.41028	-430.52720	636.13561	343.69849	-358.09624	609.06216	223.46322	-409.19533	590.86599	133.10972	-333.61406	566.27828	124.60430	-416.47474	494.42358	394.21230	-658.48717	421.49987	299.63241	-689.94621	468.19075	207.78089	-641.27645	460.66951	122.06479	-606.45021	391.20324	125.86817	-654.73344	513.26486	101.33729	-330.46888	688.16550	74.93399	-460.13671	716.41418	62.53035	-366.53865	361.83571	98.30179	-586.91012	543.21454	80.01367	-707.65916	470.04706	60.73608	-764.42520	442.79845	1470.21439	-679.24104	633.58813	1467.74622	-357.65062	641.17404	1454.72856	-551.95488	515.41035	1530.62598	-505.57252	521.63680	1443.25439	-684.27610	409.78353	1441.24507	-620.67685	684.67490	1444.25946	-407.98652	579.63731	1433.67821	-347.85635	683.93927	1372.40100	-291.90701	732.30654	1321.41324	-304.08531	686.49888	1275.45359	-224.08471	769.09023	1234.63027	-199.19386	718.96907	1171.65129	-238.47486	396.61378	1400.63706	-726.25963	370.74310	1312.14635	-711.48724	382.46882	1320.41513	-788.31016	356.03328	1233.38624	-857.88182	379.50041	1165.73030	-806.65199	836.03293	1242.01658	-248.04421	941.80543	1209.95533	-376.10539	968.61765	1182.12121	-322.53179	413.32719	1250.58677	-894.00176	584.93292	1230.82129	-945.93837	553.48838	1207.23731	-994.67904	631.37027	953.29513	-484.63397	540.93622	976.65847	-637.92562	
5	0.04167	571.28171	1026.31483	-698.63475	700.72448	1024.69718	-484.26216	467.95910	1046.88147	-539.41984	513.91935	1047.02288	-465.87381	679.44826	849.34709	-411.17529	700.96274	723.97589	-446.90406	623.73977	613.04163	-374.97611	634.71928	530.82709	-376.59062	548.25878	500.92619	-454.31667	496.04564	883.06822	-715.70235	530.79798	766.06949	-731.66845	448.44038	638.33760	-683.54629	436.74642	532.01320	-684.60750	508.66162	520.34194	-584.93633	632.41896	400.42525	-430.51203	636.17832	343.73440	-357.95568	608.83623	223.46192	-409.06285	590.79602	133.14286	-333.57500	566.05665	124.65035	-416.40355	494.05356	394.07154	-657.99194	421.27375	299.64932	-689.83451	468.02790	207.78347	-641.16942	460.12069	122.25109	-606.19218	390.99589	125.80110	-654.65958	513.20368	101.33495	-330.46275	688.04163	74.94350	-460.12804	716.37107	62.50210	-366.56912	361.86235	98.28868	-586.90210	543.19566	80.00650	-707.85020	469.84796	60.77120	-764.33239	442.68476	1470.23045	-679.19998	633.58846	1467.74981	-357.64106	641.08682	1454.75344	-551.96600	515.37885	1530.62734	-505.56840	521.34540	1443.29626	-683.99467	409.63103	1441.26012	-620.64497	684.58594	1444.29398	-407.99009	579.63983	1433.68363	-347.85232	683.94772	1372.41007	-291.89325	732.23611	1321.42798	-304.11372	686.51121	1275.46844	-224.06509	769.10567	1234.64525	-199.17150	718.86561	1171.68280	-238.45566	396.43085	1400.67052	-726.18050	370.20714	1312.17499	-711.31842	382.22814	1320.43822	-788.19066	355.79186	1233.40477	-857.74270	379.27579	1165.75977	-806.49372	835.95656	1242.05171	-248.02322	941.67303	1210.00611	-376.07406	968.62515	1182.14731	-322.52035	413.07617	1250.61836	-893.83280	584.75587	1230.82551	-945.91796	553.19705	1207.27110	-994.42042	631.32409	953.30082	-484.62242	540.81084	976.67800	-637.86530	
6	0.05000	571.14541	1026.33845	-698.57405	700.66249	1024.70093	-484.28905	468.01846	1046.82610	-539.31479	513.95952	1046.98258	-465.80045	679.61529	849.40786	-410.77384	700.93297	723.96497	-446.79437	623.81720	613.01301	-374.87995	634.92447	531.00515	-376.16967	548.06936	500.94973	-454.22460	495.89970	883.08984	-715.63030	530.58495	766.06107	-731.51701	448.26071	638.36246	-683.41730	436.55908	532.04473	-684.65083	508.63408	520.32160	-584.83538	632.33251	400.42835	-430.53100	636.34608	343.87665	-357.54660	608.65450	223.46368	-408.96859	590.76463	133.14035	-333.50166	565.87761	124.69374	-416.34581	493.77279	393.96094	-657.63475	421.09321	299.67016	-689.74718	467.87922	207.71546	-640.99336	459.68162	122.44000	-606.00170	390.83291	125.71247	-654.61702	513.20476	101.30468	-330.40645	687.97259	74.88638	-460.06614	716.36262	62.45871	-366.52130	361.93347	98.26089	-586.84847	543.18002	79.99547	-708.03044	469.66839	60.81537	-764.25563	442.61412	1470.20082	-679.15654	633.61989	1467.72304	-357.58022	641.03042	1454.72476	-551.91765	515.40535	1530.57755	-505.52103	521.13426	1443.31185	-683.82012	409.54492	1441.21542	-620.59331	684.53200	1444.27640	-407.92737	579.67835	1433.65310	-347.80043	684.01687	1372.37871	-291.75507	732.21120	1321.39765	-304.03844	686.56264	1275.45351	-223.99731	769.15478	1234.62994	-199.08813	718.79887	1171.70595	-238.43323	396.28557	1400.67223	-726.10613	369.75815	1312.19424	-711.18040	382.04132	1320.45932	-788.09816	355.60895	1233.41711	-857.63871	379.07666	1165.78922	-806.35212	835.92612	1242.03133	-247.92133	941.57667	1209.99221	-375.99764	968.71244	1182.17306	-322.23163	412.86194	1250.64773	-893.68942	584.62768	1230.75625	-945.84732	552.96748	1207.29286	-994.23080	631.35110	953.28216	-484.63728	540.71054	976.68239	-637.80095	
